HIERARCHY
ROOT Hips
{
  OFFSET 0 0 0
  CHANNELS 6 Xposition Yposition Zposition Zrotation Yrotation Xrotation
  JOINT LeftThigh
  {
    OFFSET 8.409438 0 -5.917753
    CHANNELS 3 Zrotation Yrotation Xrotation
    JOINT LeftLeg
    {
      OFFSET 0 0 -42.358652
      CHANNELS 3 Zrotation Yrotation Xrotation
      JOINT LeftFoot
      {
        OFFSET 0 0 -39.357303
        CHANNELS 3 Zrotation Yrotation Xrotation
      }
    }
  }
  JOINT RightThigh
  {
    OFFSET -8.409438 0 -5.917753
    CHANNELS 3 Zrotation Yrotation Xrotation
    JOINT RightLeg
    {
      OFFSET 0 0 -42.358652
      CHANNELS 3 Zrotation Yrotation Xrotation
      JOINT RightFoot
      {
        OFFSET 0 0 -39.357303
        CHANNELS 3 Zrotation Yrotation Xrotation
      }
    }
  }
  JOINT SpineLow
  {
    OFFSET 0 0 4.719101
    CHANNELS 3 Zrotation Yrotation Xrotation
    JOINT SpineMid
    {
      OFFSET 0 0 12.899191
      CHANNELS 3 Zrotation Yrotation Xrotation
      JOINT Chest
      {
        OFFSET 0 0 12.899191
        CHANNELS 3 Zrotation Yrotation Xrotation
        JOINT LeftShoulder
        {
          OFFSET 7.550562 1.41573 9.438202
          CHANNELS 3 Zrotation Yrotation Xrotation
          JOINT LeftArm
          {
            OFFSET 9.155056 0 4.247191
            CHANNELS 3 Zrotation Yrotation Xrotation
            JOINT LeftForearm
            {
              OFFSET 0 0 25.771955
              CHANNELS 3 Zrotation Yrotation Xrotation
              JOINT LeftHand
              {
                OFFSET 0 0 25.197169
                CHANNELS 3 Zrotation Yrotation Xrotation
              }
            }
          }
        }
        JOINT RightShoulder
        {
          OFFSET -7.550562 1.41573 9.438202
          CHANNELS 3 Zrotation Yrotation Xrotation
          JOINT RightArm
          {
            OFFSET -9.155056 0 4.247191
            CHANNELS 3 Zrotation Yrotation Xrotation
            JOINT RightForearm
            {
              OFFSET 0 0 -25.771955
              CHANNELS 3 Zrotation Yrotation Xrotation
              JOINT RightHand
              {
                OFFSET 0 0 -25.197169
                CHANNELS 3 Zrotation Yrotation Xrotation
              }
            }
          }
        }
        JOINT Neck
        {
          OFFSET 0 0 15.101124
          CHANNELS 3 Zrotation Yrotation Xrotation
          JOINT Head
          {
            OFFSET 0 0 11.325843
            CHANNELS 3 Zrotation Yrotation Xrotation
            End Site
            {
              OFFSET 0 0 14.157303
            }
          }
        }
      }
    }
  }
}
MOTION
Frames: 10
Frame Time: 0.0
0.0  101.685394  0.0  -1.631806  19.707719  -100.632897  13.487395  -27.618394  10.369715  -0.094619  9.749003  42.135788  -0.739812  3.614234  -5.669678  -7.562082  1.129579  -34.886809  4.262628  11.881889  55.225095  7.258229  4.451036  2.233753  -2.154764  -0.058974  2.830469  -5.887458  0.090996  7.734997  -5.887458  0.090996  7.734998  -4.21591  23.169185  7.480139  144.914626  27.72937  -171.209872  -46.178587  -22.167859  90.510679  81.943733  -7.13585  14.163585  17.023074  -6.220418  15.304614  -26.727516  84.608521  -67.527495  -20.981552  -3.367543  -78.844386  64.152153  -4.802067  21.843782  -3.990582  -0.454005  -6.060926  -2.997773  -0.300976  -4.548865  
0.0  101.685394  0.0  -1.593423  19.971467  -100.595531  12.33616  -27.312024  10.027322  0.514193  10.925663  42.90493  -0.122701  3.470239  -5.764853  -7.990712  1.264942  -35.24769  4.189088  12.039096  55.390778  7.314435  4.408805  2.241733  -2.147067  -0.055262  2.863469  -5.865879  0.103144  7.824823  -5.865879  0.103144  7.824822  -3.893296  23.270013  7.215538  144.576752  27.695788  -171.563583  -46.226166  -22.209821  90.768055  81.863743  -7.231047  14.120245  17.29163  -5.926356  15.293237  -28.977215  84.01141  -69.612845  -20.75004  -3.624913  -78.543353  64.263441  -4.885669  21.518958  -4.156532  -0.524185  -6.131848  -3.123009  -0.351494  -4.602671  
0.0  101.685394  0.0  -1.298385  20.011024  -100.516288  11.874984  -26.954138  9.670253  0.817097  11.627609  43.785862  0.416805  3.587304  -5.956848  -8.391574  1.486311  -35.518209  4.307799  12.075074  55.420623  7.476785  4.409154  2.343704  -2.097599  0.011083  2.893179  -5.72285  0.280762  7.900456  -5.72285  0.280762  7.900455  -3.574095  23.275462  7.060384  144.255693  27.737813  -171.938159  -46.417552  -21.89814  91.170413  81.883087  -7.33324  13.92838  17.509035  -5.703297  15.188501  -27.820497  83.202171  -68.393741  -20.349205  -3.915187  -78.370973  64.113582  -4.848583  21.353831  -4.333791  -0.671836  -6.152252  -3.257461  -0.46033  -4.619175  
0.0  101.685394  0.0  -0.891152  19.876939  -100.399171  12.139345  -26.680044  9.291342  1.018492  11.715985  44.656164  0.341957  3.899792  -6.180302  -8.677584  1.871766  -35.77845  4.487264  11.956142  55.408851  7.437439  4.38454  2.465521  -2.014823  0.109603  2.892798  -5.485271  0.539496  7.891889  -5.485271  0.539496  7.89189  -3.495595  23.234617  7.027827  144.091581  27.797044  -172.344423  -46.938032  -21.429909  91.7117  81.787818  -7.43665  13.693044  17.447956  -5.586067  15.067641  -24.303728  82.400883  -65.094598  -19.763101  -4.30248  -78.451681  63.865737  -4.77737  21.642171  -4.523429  -0.835707  -6.036414  -3.40116  -0.582205  -4.533709  
0.0  101.685394  0.0  -0.540721  19.717799  -100.240497  12.914439  -26.629274  8.907413  1.08472  11.498519  45.273158  -0.419059  4.05048  -6.558766  -8.992885  2.305787  -36.084795  4.611602  11.61736  55.358487  7.375001  4.358734  2.618413  -1.915744  0.210139  2.872174  -5.203302  0.800242  7.828838  -5.203302  0.800242  7.828838  -3.348985  23.121679  7.128509  143.850905  27.854658  -172.783036  -47.547493  -20.748171  92.464386  81.675214  -7.408538  13.371112  17.428951  -5.623784  14.985334  -21.199304  81.663571  -62.125729  -19.355528  -4.628519  -78.412719  63.630698  -4.612481  22.089708  -4.766084  -1.002118  -5.886299  -3.584519  -0.70581  -4.422745  
0.0  101.685394  0.0  -0.322181  19.519721  -100.133522  13.685017  -26.701282  8.750749  1.200291  11.184919  45.472741  -1.336494  4.119711  -6.796122  -9.294286  2.68877  -36.314031  4.909261  10.929803  55.403613  7.001391  4.336147  2.680454  -1.817594  0.310877  2.85296  -4.924008  1.061975  7.770461  -4.924008  1.061975  7.770462  -3.252251  22.891956  7.237502  143.569174  27.972138  -173.189698  -47.959778  -20.101614  93.004381  81.506498  -7.401146  12.699415  17.321358  -5.856947  14.823841  -18.216085  81.206668  -59.432067  -19.203545  -4.865966  -78.294322  63.507338  -4.432896  22.483595  -4.981991  -1.200424  -5.72918  -3.748001  -0.853769  -4.306854  
0.0  101.685394  0.0  -0.224841  19.493453  -100.011635  14.080709  -26.784004  8.661483  1.39793  10.981429  45.412975  -1.837121  4.125025  -6.839069  -9.865862  3.007392  -36.571336  4.924432  10.498451  55.24605  7.011322  4.304115  2.828524  -1.725908  0.381298  2.832411  -4.66604  1.241874  7.711195  -4.66604  1.241874  7.711196  -3.333493  22.7234  7.345376  143.400256  28.176029  -173.511653  -48.228723  -19.607273  93.401383  81.182798  -7.449193  12.035154  17.19044  -6.099892  14.693348  -16.350799  80.950229  -57.743513  -19.324576  -4.992804  -78.087613  63.519534  -4.292475  22.734788  -5.272602  -1.346386  -5.613004  -3.967033  -0.961544  -4.221548  
0.0  101.685394  0.0  -0.242591  19.552  -99.963584  14.307208  -26.79922  8.450058  1.309261  10.869323  45.212724  -1.995286  4.092317  -6.737407  -10.51401  3.281451  -36.746707  4.962147  9.952014  55.119587  7.057055  4.237451  2.929998  -1.656164  0.433744  2.808748  -4.470194  1.375242  7.644595  -4.470195  1.375242  7.644595  -3.402898  22.544761  7.522898  143.31017  28.434268  -173.72234  -48.414858  -19.418557  93.602136  80.875587  -7.568718  11.483542  16.949833  -6.413454  14.564243  -14.482978  81.000028  -56.146453  -19.66796  -4.988838  -77.799056  63.602887  -4.19239  22.820927  -5.551974  -1.456819  -5.473485  -4.177202  -1.043091  -4.118531  
0.0  101.685394  0.0  -0.330804  19.688709  -99.986994  14.652276  -26.836755  8.192247  0.989775  10.816987  45.055732  -1.863656  4.028214  -6.529146  -11.189147  3.45284  -36.834294  4.830463  9.726752  54.886129  7.245339  4.186928  3.061892  -1.603629  0.457548  2.792653  -4.324467  1.433087  7.600326  -4.324467  1.433087  7.600325  -3.397884  22.455808  7.708232  143.248497  28.761767  -173.850661  -48.353422  -19.560706  93.656274  80.658737  -7.77293  10.924174  16.852505  -6.630717  14.563449  -13.756996  81.097196  -55.493641  -20.084835  -4.947201  -77.548406  63.707819  -4.169237  22.827785  -5.804169  -1.500887  -5.358846  -4.366438  -1.074984  -4.033592  
0.0  101.685394  0.0  -0.473513  19.826451  -100.068641  15.100665  -26.823566  7.921592  0.375393  10.754733  44.850679  -1.650768  3.887066  -6.380092  -11.88692  3.49602  -36.872242  4.76708  9.293897  54.724792  7.364603  4.280744  3.14582  -1.552892  0.464156  2.789575  -4.185297  1.445109  7.592709  -4.185296  1.445109  7.592709  -3.42853  22.350413  7.847163  143.28359  29.103799  -173.825845  -48.127357  -19.992138  93.541284  80.710921  -8.158904  10.331943  16.678519  -6.8092  14.546441  -10.5468  81.862496  -52.731135  -21.344923  -4.694489  -76.8715  63.723301  -4.111773  22.702198  -6.093125  -1.522938  -5.299412  -4.58319  -1.089593  -3.989981  
